<?xml version="1.0" encoding="utf-8"?>
<!-- Generator: Avocode 2.4.3-3630f5a - http://avocode.com -->
<svg height="71" width="60" xmlns:xlink="http://www.w3.org/1999/xlink" xmlns="http://www.w3.org/2000/svg" viewBox="0 0 60 71">
    <path fill="#4a4a4a" fill-rule="evenodd" d="M 38.56 1.94 C 39.23 1.94 39.68 1.55 39.68 0.97 C 39.68 0.39 39.23 0 38.56 0 L 18.53 0 C 17.86 0 17.42 0.39 17.42 0.97 C 17.42 1.55 17.86 1.94 18.53 1.94 L 38.56 1.94 Z M 38.56 1.94" />
    <path fill="#4a4a4a" fill-rule="evenodd" d="M 22 21.64 L 22 6.62 L 35.33 6.62 L 35.33 21.64 C 35.33 27.82 38.67 34.88 40.67 38.41 C 40 38.41 39.33 38.19 38.67 38.19 C 34.45 38.19 32.45 39.3 30.45 40.62 C 28.67 41.72 26.89 42.61 23.33 42.61 C 19.78 42.61 18 41.5 16.22 40.62 L 16.22 40.4 C 16.22 40.18 22 30.02 22 21.64 L 22 21.64 Z M 57.11 66.67 C 56.67 67.78 54.67 68.44 52 68.44 L 7.56 68.44 C 4.89 68.44 3.11 67.78 2.45 66.67 C 2 65.79 2.45 64.02 3.78 62.04 L 14.89 42.39 C 16.89 43.49 19.11 44.82 23.11 44.82 C 27.33 44.82 29.33 43.71 31.33 42.39 C 33.11 41.28 34.89 40.4 38.45 40.4 C 39.78 40.4 40.89 40.62 42 40.84 L 55.56 62.26 C 57.11 64.24 57.56 65.79 57.11 66.67 L 57.11 66.67 Z M 2 60.93 C -0.44 64.24 -0.22 66.45 0.45 67.78 C 1.11 69.1 2.89 70.65 7.56 70.65 L 52 70.65 C 56.67 70.65 58.45 69.1 59.11 67.78 C 59.78 66.45 60 64.46 57.78 61.15 L 44 39.08 L 43.78 38.85 C 42.89 37.53 37.78 28.7 37.78 21.64 L 37.78 5.74 C 37.78 5.08 37.33 4.64 36.67 4.64 L 21.11 4.64 C 20.45 4.64 20 5.08 20 5.74 L 20 21.64 C 20 29.36 14.45 39.3 14.45 39.3 L 2 60.93 Z M 2 60.93" />
</svg>